<?xml version="1.0" encoding="UTF-8"?>
<svg width="71px" height="62px" viewBox="0 0 71 62" version="1.1" xmlns="http://www.w3.org/2000/svg" xmlns:xlink="http://www.w3.org/1999/xlink">
    <!-- Generator: Sketch 42 (36781) - http://www.bohemiancoding.com/sketch -->
    <title>media</title>
    <desc>Created with Sketch.</desc>
    <defs>
        <circle id="path-1" cx="31" cy="31" r="31"></circle>
    </defs>
    <g id="Page-1" stroke="none" stroke-width="1" fill="none" fill-rule="evenodd">
        <g id="solutions_landing" transform="translate(-158.000000, -566.000000)">
            <g id="card" transform="translate(138.000000, 523.000000)">
                <g id="media" transform="translate(20.000000, 43.000000)">
                    <mask id="mask-2" fill="white">
                        <use xlink:href="#path-1"></use>
                    </mask>
                    <use id="Oval" fill="#536D79" xlink:href="#path-1"></use>
                    <g id="Media" mask="url(#mask-2)">
                        <g transform="translate(-12.000000, 17.000000)">
                            <polygon id="Fill-1" fill="#36464E" opacity="0.204257246" points="3 37 55.7260674 37 55.7260674 3 3 3"></polygon>
                            <polygon id="Fill-1" fill="#66BBFF" points="0 30.3057138 52.7260674 30.3057138 52.7260674 0 0 0"></polygon>
                            <polygon id="Fill-3" fill="#F6F6F6" points="0 34 52.7260674 34 52.7260674 29.4764455 0 29.4764455"></polygon>
                            <g id="Group-10" stroke-width="1" fill="none" transform="translate(23.470483, 8.545840)">
                                <path d="M25.1892373,22.8361347 C25.1892373,24.7860927 23.583995,26.3662694 21.6031057,26.3662694 C19.6222165,26.3662694 18.0169742,24.7860927 18.0169742,22.8361347 C18.0169742,20.8861767 19.6222165,19.306 21.6031057,19.306 C23.583995,19.306 25.1892373,20.8861767 25.1892373,22.8361347" id="Fill-4" fill="#FFFFFF"></path>
                                <path d="M23.0374456,22.8361347 C23.0374456,23.6156737 22.3955743,24.2486328 21.6025417,24.2486328 C20.8106372,24.2486328 20.1687659,23.6156737 20.1687659,22.8361347 C20.1687659,22.0565957 20.8106372,21.4236366 21.6025417,21.4236366 C22.3955743,21.4236366 23.0374456,22.0565957 23.0374456,22.8361347" id="Fill-6" fill="#414141"></path>
                                <polygon id="Fill-8" fill="#536D79" points="0 0 0 13.295633 10.0743156 6.64781652"></polygon>
                            </g>
                        </g>
                    </g>
                    <g id="music-note" transform="translate(46.000000, 5.000000)" fill-rule="nonzero" fill="#36464E" opacity="0.178385417">
                        <path d="M24.8287471,18.7577099 L24.8287471,1.87714758 L24.8287471,1.80429073 L24.8200333,1.73196379 C24.7969156,1.54008178 24.7397941,1.32442712 24.6093848,1.08889068 C24.3431487,0.608032798 23.8614912,0.268849332 23.2336407,0.268849333 C22.9351597,0.268849333 20.9360262,0.698480773 15.5193626,1.89041277 C15.4523724,1.90515463 15.4523724,1.90515463 15.3853891,1.91989781 C13.771508,2.27513376 12.0506713,2.65571104 10.3353037,3.03628384 C9.73494038,3.16948091 9.17813585,3.2931651 8.67894963,3.4041668 C8.4008632,3.46601439 8.4008632,3.46601439 8.21555682,3.50725256 C8.08015567,3.53739355 8.08015567,3.53739355 8.05159553,3.54375518 L8.31043984,4.721205 L8.14171607,3.52729089 C7.93337085,3.55712402 7.70071266,3.63020898 7.45524444,3.79123828 C7.00502244,4.08658786 6.71025415,4.58228335 6.71025415,5.19125666 C6.71025415,5.37608536 6.71025415,5.37608536 6.71025415,5.94098078 C6.71025415,6.66876192 6.71025415,6.66876192 6.71025415,7.66801929 C6.71025415,9.99230549 6.71025415,9.99230549 6.71025415,12.7509536 C6.71025415,14.6961212 6.71025415,14.6961212 6.71025415,16.4890119 C6.71025415,19.5019439 6.71025415,19.5019439 6.71025415,20.3194863 L9.10631181,20.3194863 C9.10631181,19.5019439 9.10631181,19.5019439 9.10631181,16.4890119 C9.10631181,14.6961212 9.10631181,14.6961212 9.10631181,12.7509536 C9.10631181,9.99230549 9.10631181,9.99230549 9.10631181,7.66801929 C9.10631181,6.66876192 9.10631181,6.66876192 9.10631181,5.94098078 C9.10631181,5.37608536 9.10631181,5.37608536 9.10631181,5.19125666 C9.10631181,5.43932181 8.96235234,5.68141047 8.76347838,5.81187353 C8.66881898,5.87397092 8.58696962,5.89968228 8.47916362,5.91511911 L8.56928415,5.89865483 C8.59765605,5.89233512 8.59765605,5.89233512 8.73285225,5.86223976 C8.9179445,5.82104924 8.9179445,5.82104924 9.19579643,5.7592538 C9.69462288,5.6483321 10.2510568,5.52473023 10.8510322,5.39161923 C12.5652036,5.01131183 14.2847997,4.63100889 15.8972405,4.27608999 C15.9641537,4.26136224 15.9641537,4.26136224 16.0310726,4.24663606 C18.0731367,3.7972817 19.7845464,3.42366627 21.056168,3.15038357 C21.7751972,2.99585785 22.3438397,2.8755255 22.7473652,2.79267503 C22.9566679,2.74970172 23.1199381,2.71714829 23.2336528,2.69571418 C23.2865714,2.68573952 23.3268063,2.67854851 23.3518252,2.67449679 C23.3209242,2.67950109 23.3113074,2.68071626 23.2336407,2.68071626 C22.9108164,2.68071626 22.6434257,2.49241959 22.5164251,2.2630397 C22.4695572,2.17839006 22.4524018,2.11362219 22.4414033,2.02233138 L23.6307183,1.87714758 L22.4326894,1.87714758 L22.4326894,18.7577099 L24.8287471,18.7577099 L24.8287471,18.7577099 Z" id="Path-173"></path>
                        <polygon id="Line" points="8.38929298 11.5714207 23.3007312 8.24140248 24.4703221 7.98020976 23.9513608 5.62559396 22.7817699 5.88678668 7.87033168 9.21680492 6.70074078 9.47799764 7.21970208 11.8326134"></polygon>
                        <path d="M23.5323227,13.8089178 L23.5323227,13.8089178 L24.7790711,13.3986479 L24.7790711,18.7897188 C24.7790711,18.7897188 24.7748882,18.9058324 24.7723841,18.962575 C24.6617357,21.4698633 24.0227438,22.2732592 24.0227438,22.2732592 C24.0227438,22.2732592 23.959191,22.3852193 23.9261068,22.4386099 C23.020322,23.9003482 21.4873199,24.081507 21.4873199,24.081507 C21.4873199,24.081507 21.4119617,24.094432 21.3746412,24.1003345 C18.9117096,24.4898692 17.4920389,23.2680366 17.4920389,23.2680366 C17.4920389,23.2680366 17.433022,23.2170171 17.404281,23.1913558 C15.8111085,21.7688979 15.7808004,20.0480872 15.7808004,20.0480872 C15.7808004,20.0480872 15.7724575,19.9177018 15.7700341,19.854109 C15.700935,18.0409221 16.5583364,17.0957316 16.5583364,17.0957316 C16.5583364,17.0957316 16.6366716,16.9941931 16.677912,16.9449498 C17.8089926,15.594379 19.9414264,15.0069264 19.9414264,15.0069264 L23.5323227,13.8089178 Z" id="Path-176"></path>
                        <path d="M7.89085131,18.1091631 L7.89085131,18.1091631 L9.13759967,17.6988932 L9.13759967,23.089964 C9.13759967,23.089964 9.13341681,23.2060777 9.13091272,23.2628203 C9.02026428,25.7701086 8.38127238,26.5735044 8.38127238,26.5735044 C8.38127238,26.5735044 8.31771958,26.6854646 8.28463539,26.7388552 C7.37885058,28.2005935 5.84584846,28.3817523 5.84584846,28.3817523 C5.84584846,28.3817523 5.77049023,28.3946773 5.73316978,28.4005798 C3.27023816,28.7901145 1.8505675,27.5682818 1.8505675,27.5682818 C1.8505675,27.5682818 1.79155056,27.5172624 1.76280953,27.491601 C0.169637109,26.0691432 0.139329007,24.3483325 0.139329007,24.3483325 C0.139329007,24.3483325 0.130986119,24.2179471 0.128562649,24.1543543 C0.0594635709,22.3411674 0.91686495,21.3959768 0.91686495,21.3959768 C0.91686495,21.3959768 0.995200214,21.2944383 1.03644061,21.2451951 C2.16752113,19.8946243 4.29995498,19.3071717 4.29995498,19.3071717 L7.89085131,18.1091631 Z" id="Path-176"></path>
                    </g>
                    <g id="music-note" transform="translate(44.000000, 3.000000)" fill-rule="nonzero" fill="#66BBFF">
                        <path d="M24.8287471,18.7577099 L24.8287471,1.87714758 L24.8287471,1.80429073 L24.8200333,1.73196379 C24.7969156,1.54008178 24.7397941,1.32442712 24.6093848,1.08889068 C24.3431487,0.608032798 23.8614912,0.268849332 23.2336407,0.268849333 C22.9351597,0.268849333 20.9360262,0.698480773 15.5193626,1.89041277 C15.4523724,1.90515463 15.4523724,1.90515463 15.3853891,1.91989781 C13.771508,2.27513376 12.0506713,2.65571104 10.3353037,3.03628384 C9.73494038,3.16948091 9.17813585,3.2931651 8.67894963,3.4041668 C8.4008632,3.46601439 8.4008632,3.46601439 8.21555682,3.50725256 C8.08015567,3.53739355 8.08015567,3.53739355 8.05159553,3.54375518 L8.31043984,4.721205 L8.14171607,3.52729089 C7.93337085,3.55712402 7.70071266,3.63020898 7.45524444,3.79123828 C7.00502244,4.08658786 6.71025415,4.58228335 6.71025415,5.19125666 C6.71025415,5.37608536 6.71025415,5.37608536 6.71025415,5.94098078 C6.71025415,6.66876192 6.71025415,6.66876192 6.71025415,7.66801929 C6.71025415,9.99230549 6.71025415,9.99230549 6.71025415,12.7509536 C6.71025415,14.6961212 6.71025415,14.6961212 6.71025415,16.4890119 C6.71025415,19.5019439 6.71025415,19.5019439 6.71025415,20.3194863 L9.10631181,20.3194863 C9.10631181,19.5019439 9.10631181,19.5019439 9.10631181,16.4890119 C9.10631181,14.6961212 9.10631181,14.6961212 9.10631181,12.7509536 C9.10631181,9.99230549 9.10631181,9.99230549 9.10631181,7.66801929 C9.10631181,6.66876192 9.10631181,6.66876192 9.10631181,5.94098078 C9.10631181,5.37608536 9.10631181,5.37608536 9.10631181,5.19125666 C9.10631181,5.43932181 8.96235234,5.68141047 8.76347838,5.81187353 C8.66881898,5.87397092 8.58696962,5.89968228 8.47916362,5.91511911 L8.56928415,5.89865483 C8.59765605,5.89233512 8.59765605,5.89233512 8.73285225,5.86223976 C8.9179445,5.82104924 8.9179445,5.82104924 9.19579643,5.7592538 C9.69462288,5.6483321 10.2510568,5.52473023 10.8510322,5.39161923 C12.5652036,5.01131183 14.2847997,4.63100889 15.8972405,4.27608999 C15.9641537,4.26136224 15.9641537,4.26136224 16.0310726,4.24663606 C18.0731367,3.7972817 19.7845464,3.42366627 21.056168,3.15038357 C21.7751972,2.99585785 22.3438397,2.8755255 22.7473652,2.79267503 C22.9566679,2.74970172 23.1199381,2.71714829 23.2336528,2.69571418 C23.2865714,2.68573952 23.3268063,2.67854851 23.3518252,2.67449679 C23.3209242,2.67950109 23.3113074,2.68071626 23.2336407,2.68071626 C22.9108164,2.68071626 22.6434257,2.49241959 22.5164251,2.2630397 C22.4695572,2.17839006 22.4524018,2.11362219 22.4414033,2.02233138 L23.6307183,1.87714758 L22.4326894,1.87714758 L22.4326894,18.7577099 L24.8287471,18.7577099 L24.8287471,18.7577099 Z" id="Path-173"></path>
                        <polygon id="Line" points="8.38929298 11.5714207 23.3007312 8.24140248 24.4703221 7.98020976 23.9513608 5.62559396 22.7817699 5.88678668 7.87033168 9.21680492 6.70074078 9.47799764 7.21970208 11.8326134"></polygon>
                        <path d="M23.5323227,13.8089178 L23.5323227,13.8089178 L24.7790711,13.3986479 L24.7790711,18.7897188 C24.7790711,18.7897188 24.7748882,18.9058324 24.7723841,18.962575 C24.6617357,21.4698633 24.0227438,22.2732592 24.0227438,22.2732592 C24.0227438,22.2732592 23.959191,22.3852193 23.9261068,22.4386099 C23.020322,23.9003482 21.4873199,24.081507 21.4873199,24.081507 C21.4873199,24.081507 21.4119617,24.094432 21.3746412,24.1003345 C18.9117096,24.4898692 17.4920389,23.2680366 17.4920389,23.2680366 C17.4920389,23.2680366 17.433022,23.2170171 17.404281,23.1913558 C15.8111085,21.7688979 15.7808004,20.0480872 15.7808004,20.0480872 C15.7808004,20.0480872 15.7724575,19.9177018 15.7700341,19.854109 C15.700935,18.0409221 16.5583364,17.0957316 16.5583364,17.0957316 C16.5583364,17.0957316 16.6366716,16.9941931 16.677912,16.9449498 C17.8089926,15.594379 19.9414264,15.0069264 19.9414264,15.0069264 L23.5323227,13.8089178 Z" id="Path-176"></path>
                        <path d="M7.89085131,18.1091631 L7.89085131,18.1091631 L9.13759967,17.6988932 L9.13759967,23.089964 C9.13759967,23.089964 9.13341681,23.2060777 9.13091272,23.2628203 C9.02026428,25.7701086 8.38127238,26.5735044 8.38127238,26.5735044 C8.38127238,26.5735044 8.31771958,26.6854646 8.28463539,26.7388552 C7.37885058,28.2005935 5.84584846,28.3817523 5.84584846,28.3817523 C5.84584846,28.3817523 5.77049023,28.3946773 5.73316978,28.4005798 C3.27023816,28.7901145 1.8505675,27.5682818 1.8505675,27.5682818 C1.8505675,27.5682818 1.79155056,27.5172624 1.76280953,27.491601 C0.169637109,26.0691432 0.139329007,24.3483325 0.139329007,24.3483325 C0.139329007,24.3483325 0.130986119,24.2179471 0.128562649,24.1543543 C0.0594635709,22.3411674 0.91686495,21.3959768 0.91686495,21.3959768 C0.91686495,21.3959768 0.995200214,21.2944383 1.03644061,21.2451951 C2.16752113,19.8946243 4.29995498,19.3071717 4.29995498,19.3071717 L7.89085131,18.1091631 Z" id="Path-176"></path>
                    </g>
                </g>
            </g>
        </g>
    </g>
</svg>